<svg xmlns="http://www.w3.org/2000/svg" viewBox="0 0 306.81 144.21"><defs><style>.cls-1{fill:#f5ecc9;}.cls-2{fill:#dfd5a5;}.cls-3{fill:#dfd6a8;}.cls-4{fill:#cfc598;}.cls-5{fill:#bbaf84;}.cls-6{fill:#cfc497;}.cls-7{fill:#f4edce;}.cls-8{fill:#883713;}.cls-9{fill:#712c0f;}.cls-10{fill:#d8b991;}.cls-11{fill:#b0451a;}.cls-12{fill:#c88870;}.cls-13{fill:#994324;}</style></defs><title>black-tea</title><g id="Calque_2" data-name="Calque 2"><g id="Calque_6" data-name="Calque 6"><path class="cls-1" d="M215,0h1.44c-.09.78.71.93,1,1.41a24.85,24.85,0,0,1,3.25.26,15.6,15.6,0,0,0,3.42.05c.2-.28.72-.42.26-.92-.15-.17-.08-.53-.12-.8.48,0,1,0,1.42,0s1-.21,1.31.28c.35-.48.86-.22,1.3-.28,0,1.48-.08,3,0,4.45s-.45,3-.33,4.48c0,.29-.26.59-.25.89a5,5,0,0,0,.26,1c0,.13.06.34,0,.42-.46.53-.2,1.17-.28,1.76s-.23,1.16-.27,1.75a9.77,9.77,0,0,1-.27,2.62c-.18.51,0,1.15-.05,1.71s-.4.95-.26,1.46-.29,1-.31,1.61-.21,1.16-.26,1.75-.16,1.17-.25,1.75c-.28,1.66-.57,3.31-.94,4.95a6.7,6.7,0,0,0-.27,1.61,6.75,6.75,0,0,1-.8,3.07l.49.2,0,.17h-33.6a20.08,20.08,0,0,0,.54-2.93,8.37,8.37,0,0,1,.36-2.46,7.81,7.81,0,0,0,.26-2.19,1.81,1.81,0,0,1,.07-.42l.53-.17V23.12l.48-.16c.12-1.7.24-3.34.35-5,0-.1,0-.21,0-.28.59-1.08.14-2.19.24-3.3H152.13c-.35,0-.76-.18-1.08.18a.45.45,0,0,1-.37.09c-.47-.53-1.08-.26-1.62-.26q-34.66,0-69.34,0H61.18l-.44.44c.11,1.14.06,2.29.23,3.46a20.38,20.38,0,0,1,.36,5.06c-.1,1,.49,1.9.28,2.9.54.54,0,1.33.38,1.85s.11.82.2,1.22.2.88.28,1.32c.16.77-.1,1.53.23,2.35s0,1.62.59,2.32c0,0-.14.17-.31.38H190.53V36H40.89c-.09-.08-.27-.15-.27-.23a10.69,10.69,0,0,0-.53-2.51c-.25-.95-.44-1.94-.62-2.91a24.67,24.67,0,0,0-.33-2.46,27.77,27.77,0,0,1-.84-5.12,1.84,1.84,0,0,0-.09-.53,8.11,8.11,0,0,1-.45-2.11,33.38,33.38,0,0,1-.32-3.47c0-.09,0-.22,0-.28-.47-.58-.2-1.27-.28-1.9s-.22-1.36-.28-2a18.58,18.58,0,0,0-.25-3.63,12.29,12.29,0,0,1,0-2.72c0-.87-.21-1.74-.27-2.61,0-.67,0-1.34,0-2,.63-.09,1.26-.24,1.89-.27.86-.05,1.72,0,2.62,0A1.18,1.18,0,0,0,42,1.77c1.53,0,3.06,0,4.59,0a2.94,2.94,0,0,0,1.83-.44V0h1.43c0,.2-.13.58.23.55a1.15,1.15,0,0,1,1,.48c.26.27.52.52.88.87a1.51,1.51,0,0,1,1.61-.77c1.15.05,2.3,0,3.45,0,11.2,0,22.41,0,33.61,0A6,6,0,0,0,92.87.54C93,.5,93,.2,93,0h1.15V1.31c.57-.05,1.06-.13,1.54-.13h35L130.39,0h2.3V.41a8.72,8.72,0,0,0,4.58.77q18.73,0,37.48,0h1a.66.66,0,0,1,.68.57h-39.7c-.63,0-1.34-.22-1.82.48-.07.1-.35.08-.53.08h-1.59l-.21-.6c-.46.15-1-.19-1.45.25a.86.86,0,0,1-.81,0c-.52-.41-1.08-.26-1.62-.26H94.75a4.69,4.69,0,0,0-2.68.47,1,1,0,0,1-.53.1c-1,0-2.06.25-3-.48-.21-.17-.64-.08-1-.08H56.25A2.58,2.58,0,0,0,55,1.91a3.87,3.87,0,0,1-2,.44c-.18,0-.34.31-.63.58H50.74c.91.83.19,1.36-.08,2,.1.2.2.4.31.59.26.45.51.91,1.15.86a1.75,1.75,0,0,0,1.45,1.72c.14,0,.37.05.41,0,.59-.85,1.46-.54,2.23-.54h82.73c.41,0,.83,0,1.23,0V6.93H141v.56h66.08a3.87,3.87,0,0,0,1-2.85h1.61a4.78,4.78,0,0,0,.45.48c.19.16.42.28.8.53,0-.55,0-.93,0-1.3,0-.62-.22-.83-.81-.87s-1.4.18-2.05-.27a.53.53,0,0,0-.52.08c-.37.38-.82.1-1.22.19V2.33c-1.29,0-2.47,0-3.66,0a1.46,1.46,0,0,1-1.07-.22,2.47,2.47,0,0,0-1.56-.36q-10.4,0-20.78,0a2.48,2.48,0,0,0-1.58.35,1.45,1.45,0,0,1-1.28.18V1.75a4.1,4.1,0,0,0,.92-.51c.39-.33.71-.73,1.29-.71,0,0,.06-.33.1-.5h1.43V.81a5.27,5.27,0,0,0,1.54.39c6.45,0,12.89,0,19.33,0,.27-.38.85-.55.72-1.15h4.6V1.18c1.18,0,2.27,0,3.36,0a2.65,2.65,0,0,1,.94.14c1.6.71,3.26.37,5,.4-.05-.33-.07-.74-.14-.75C214.81.89,215,.4,215,0Zm11.56,2.06c.84-.26.5-1,.93-1.46h-.93Z"/><path class="cls-2" d="M190.82,35.71h33.6l0-.17-.49-.2a6.75,6.75,0,0,0,.8-3.07,6.7,6.7,0,0,1,.27-1.61c.37-1.64.66-3.29.94-4.95.09-.58.19-1.16.25-1.75s.23-1.17.26-1.75.48-1,.31-1.61.18-1,.26-1.46-.13-1.2.05-1.71a9.77,9.77,0,0,0,.27-2.62c0-.59.19-1.17.27-1.75s-.18-1.23.28-1.76c.07-.08,0-.29,0-.42a5,5,0,0,1-.26-1c0-.3.27-.6.25-.89-.12-1.51.44-3,.33-4.48s0-3,0-4.45h.58l.21.28.36-.28H255c.12.09.24.26.36.27a12.15,12.15,0,0,0,1.81,0,1.79,1.79,0,0,1,1,.3c0,1.48,0,3,0,4.44a19.79,19.79,0,0,1-.24,4.48c-.25,1,0,2-.28,3s0,1.91-.3,2.89c-.25.77,0,1.62-.27,2.47s-.09,1.62-.3,2.45a20.08,20.08,0,0,0-.33,3,1.93,1.93,0,0,1,0,.42,8.36,8.36,0,0,0-.54,2.93,6,6,0,0,1-.16.93c-.2,1.3-.83,2.51-.7,3.87a3.27,3.27,0,0,1-.16.78c-.18,1.16-.78,2.24-.71,3.45,0,.07-.18.15-.28.23H190.53v-.29ZM241.2,24.29c-.09-2,.21-4-.42-5.81-.66-.14-1.22-.93-1.88-.57s-1.41-.1-1.66.68c.49.71.79-.49,1.4,0,.38.29,1.06.17,1.6.24.33.81.33.81-.09,1.66a16.81,16.81,0,0,0-1.89.22,1.73,1.73,0,0,0-1.51,1.19,1.55,1.55,0,0,0,1.43,2.33c.47,0,.95,0,1.42,0C240.46,23.43,240.55,23.43,241.2,24.29Z"/><path class="cls-2" d="M257,111.68h.57v.58H284.7a.25.25,0,0,1,.12,0l.17.15a5.22,5.22,0,0,1-.38.54,16,16,0,0,1-2.33.22l-.83-.09a23.32,23.32,0,0,0-2.9.26c-5.12.06-10.25,0-15.38,0-.93,0-1.81-.5-2.76-.29a1,1,0,0,0-.23.14v.56l1.12.74a4.84,4.84,0,0,1,2.5-.58c4.64,0,9.29,0,13.94,0a4.25,4.25,0,0,1,2,.33,2.91,2.91,0,0,0,1.34.26l.94,0v.82c0,.43-.35.25-.57.29-.23-.61-.7-.17-1.05-.24,0,.5-.85.49-.68,1.1,0,.43-.36.25-.57.29,0-.38-.35-.35-.5-.27-.82.45-1.7.19-2.6.3-.2.26-.67.65-.6.82.29.72-.71.4-.62.88a2.62,2.62,0,0,1,0,.28,8.55,8.55,0,0,1-2.18,1.14c-.34.18-.82.14-1.14.35a7.06,7.06,0,0,1-2.11.82c-.74.18-1.32.69-2.07.9-1.66.48-3.24,1.2-4.86,1.81a9.48,9.48,0,0,1-2,.71c-.74.09-1.24.72-2.07.65a3.46,3.46,0,0,0-1.62.54,31.19,31.19,0,0,1-4.16,1.38c-.89.29-1.77.64-2.67.85a22.25,22.25,0,0,0-2.84.8c-.65.24-1.33.48-2,.68-.43.13-.89,0-1.33.28a4.13,4.13,0,0,1-1.3.32c-.44.09-.89.18-1.32.29-.26.07-.5.28-.74.27-1.13,0-2.06.78-3.2.64-1.27.76-2.82.5-4.14,1.1-1.82-.12-3.43,1-5.25.86-.47.47-1.11.12-1.59.32a4.31,4.31,0,0,1-1.76.26c-.15,0-.32-.05-.43,0-1.43.71-3,.48-4.54.82a24.86,24.86,0,0,1-3.47.32c-.09,0-.23,0-.28,0a1.55,1.55,0,0,1-1.46.25c-.6-.08-1.06.32-1.61.32-1.35,0-2.69,0-4,0s-2.57.44-3.91.31c-1-.1-2,0-3,0V130.6c0-.57,0-1.14,0-1.71s-.3-.83-.87-.81a.69.69,0,0,1,.41-.82,14.34,14.34,0,0,0,2.85-1.43c.73.07,1.13-.74,1.86-.7.76-.82,1.88-1,2.79-1.57.74-.45,1.6-.75,2.35-1.22.53-.33,1.16-.5,1.65-.86a12,12,0,0,1,3.08-1.92,2.18,2.18,0,0,0,.69-.4c.45-.37.87-.76,1.3-1.15h.87c1.53,0,3.06,0,4.59,0,.58,0,1.34-.37,1.61.57.9-.13,1.11.77,1.79,1.15h1.9a.66.66,0,0,0,.74-.65,5.3,5.3,0,0,0-.1-1.79l-1.74.74-1.12-1.18c.88-.73.92-.5.1-1l.39-1.29a7.52,7.52,0,0,0,3-.31,3.31,3.31,0,0,1,1.61-.28c7.62,0,15.23,0,22.85,0a6,6,0,0,1,3.16.71c.51.3,1,.12,1.52.14.2,0,.4-.3.7-.53-.51-.5-.83-1-1.55-1-.06-.82-.85-.58-1-.44a1.63,1.63,0,0,1-1.21.23q-12.93,0-25.87,0A9.19,9.19,0,0,1,229,113a15.74,15.74,0,0,0-3.07,0c-.78.05-1.5.66-2.28.39v-1.09h33.1a.33.33,0,0,0,.13,0,.32.32,0,0,0,.1-.1Z"/><path class="cls-1" d="M3.77,112c.08-.1.15-.27.23-.28.43,0,.86,0,1.29,0H73.82a11.09,11.09,0,0,0,1.29,0,9.63,9.63,0,0,0,1.18-.28l1.44.29c-.12.88.83.92,1.16,1.45a.8.8,0,0,0,.37.27c.35.15.72.27,1.06.39v.77h-35l-.21.62H43.51v1a4.28,4.28,0,0,1,.52.22c.48.34.95.71,1.44,1a6.49,6.49,0,0,0,1.52.84c.53.16.78.7,1.39.79s1.13.57,1.72.65,1.09.78,1.79.91,1.44,1,2.38.84c.43.46,1.19.35,1.54.74.52.58,1.16.27,1.69.49.12,0,.19.22.31.29s.36.24.48.19c.48-.15.81.2,1.17.35a7.37,7.37,0,0,0,3.54.82c.18,0,.36,0,.56,0l.12.76c1.18.28,2.28.52,3.37.8.91.23,1.8.52,2.71.74a19.56,19.56,0,0,1,3.62,1,1.56,1.56,0,0,0,.5.17,3.51,3.51,0,0,1,1.62.27,3.19,3.19,0,0,0,1.31.3c.87.06,1.78-.15,2.51.57.09.09.37,0,.56,0h1.86A.75.75,0,0,1,82,129c0,.13.07.26.13.48.44,0,.91,0,1.37,0a3.18,3.18,0,0,1,.82.11,7.92,7.92,0,0,0,2.68.47,3,3,0,0,1,1.54.07,3.41,3.41,0,0,0,1.22.21,10.3,10.3,0,0,0,1.32.27c1,.09,2-.16,2.9.3,1.6-.07,3.16.44,4.77.31,1.05-.09,2.11,0,3.16,0l.37,2.21c.2.11.48.23.47.27-.15.57.33.64.63.88a3.09,3.09,0,0,0,.83.42c.5.2,1.11.3,1.44.82-3.69,0-7.38.06-11.07,0s-7.4.29-11.1-.25c-1.12-.16-2.33.15-3.43-.09-.7-.14-1.37-.15-2.05-.23s-1.36-.21-2-.27c-1.3-.12-2.6-.2-3.9-.3,0,0-.12,0-.14,0-.43-.43-1-.23-1.47-.29s-1-.19-1.46-.28a5.13,5.13,0,0,0-1.46-.27,7.6,7.6,0,0,1-2.75-.36c-1.65-.44-3.35-.63-5-1.09a12.06,12.06,0,0,1-2.12-.43,9.57,9.57,0,0,0-2.73-.67,19.94,19.94,0,0,1-3.81-.91,9.08,9.08,0,0,0-2.34-.56c-.63-.05-1.06-.57-1.63-.59a11.85,11.85,0,0,1-3.12-.81c-.4-.12-.79,0-1.2-.25-.72-.52-1.75-.36-2.47-1a12.3,12.3,0,0,1-3.37-.87c-1.19-.36-2.38-.74-3.55-1.15s-2.08-.77-3.12-1.14c-1.43-.5-2.83-1-4.26-1.53-1.21-.41-2.41-.88-3.6-1.36a19,19,0,0,0-3.67-1.57,7.41,7.41,0,0,1-1.94-.84,7.86,7.86,0,0,1-1.95-.92A6.84,6.84,0,0,0,13,117c-.74-.32-1.46-.65-2.18-1a17.55,17.55,0,0,1-2.24-1.16,8.07,8.07,0,0,1-1.74-1.07,4.07,4.07,0,0,0-1.48-.9c-.28-.12-.63,0-.88-.33A3.38,3.38,0,0,0,3.77,112Z"/><path class="cls-3" d="M262.19,13a8.66,8.66,0,0,0,2.66-.52c.57-.16,1.15-.11,1.74-.29,1-.3,2-.14,3-.37,2.35-.53,4.72-.15,7.08-.25a8.38,8.38,0,0,1,1.75.28c.58.1,1.24-.28,1.75.28a6.29,6.29,0,0,1,2.32.3,14,14,0,0,1,4.26,1.17,2,2,0,0,0,.9.26,3.43,3.43,0,0,1,1.76.62,2.18,2.18,0,0,0,.69.4c2.07.59,3.54,2.13,5.28,3.24a18.91,18.91,0,0,1,3.79,3.28,34.75,34.75,0,0,1,3.56,4.85c.33.52.41,1.16.9,1.65a3.75,3.75,0,0,1,.72,1.55c.32,1,1.08,1.9,1,3,0,.12.09.25.16.37a9.21,9.21,0,0,1,.69,2.73,9.87,9.87,0,0,1,.28,1.61,7.41,7.41,0,0,0,0,1.57c.5,1.49.14,3,.26,4.49,0,.21.11.51-.29.52-.82.3-.66,1.11-.85,1.71a20.74,20.74,0,0,1-1.21,4,1.66,1.66,0,0,0-.23.63c-.09.81-.72,1.45-.69,2.3-.45.3-.4.77-.51,1.23s-.57.81-.79,1.25c-.11.23,0,.56,0,.84-.43.49-1.09.84-.89,1.66a.27.27,0,0,1-.13.22c-.62.36-.32,1.3-1,1.6.2.72-.43,1.15-.76,1.53s-.47,1.16-.92,1.67a18.06,18.06,0,0,0-1.78,3c-.26.46-.69.85-.7,1.43-.62.21-.73.81-1,1.27a7.15,7.15,0,0,1-1.15,1.36c-.69.63-.84,1.68-1.71,2.15-.16.77-1,1-1.31,1.61a7.17,7.17,0,0,1-1.34,1.6c-.7.72-1.43,1.41-2.13,2.14-.24.25-.37.67-.65.8a9.75,9.75,0,0,0-2.37,1.91c-.37.34-.8.61-1.2.92a13.26,13.26,0,0,1-1.28,1,18.49,18.49,0,0,0-2.37,1.53c-.77.69-1.75,1-2.49,1.62a2,2,0,0,1-1.41.47l-1.16,1.17h-1.17c-.17.24-.05.64-.51.57-.22,0-.58,0-.67.08-.4.55-1.09.42-1.56.78-.73-.34-1,.57-1.63.6a15.21,15.21,0,0,0-1.53.42c-1.21.2-2.33.79-3.59.7-.19,0-.47-.07-.56,0-.4.43-.89.18-1.33.26a9.48,9.48,0,0,1-1.47.27c-1.38,0-2.77,0-4.16,0-.13,0-.25-.18-.37-.28.19-.66.8-.25,1.19-.39.82-.31,1.57-1,2.56-.77.07,0,.16-.06.24-.1,1-.45,1.94-.86,2.93-1.25a21.71,21.71,0,0,0,4-2.09c1.45-1,3-1.86,4.44-2.82,1.16-.75,2.18-1.66,3.28-2.47.29-.22.79-.36.85-.63a1.48,1.48,0,0,1,.67-.87,33.29,33.29,0,0,0,3.4-2.87A13.36,13.36,0,0,0,282,72.73a10.7,10.7,0,0,1,1.14-1.35c.37-.42.51-1.09,1.17-1.24,0-.67.67-.93.92-1.46a8.21,8.21,0,0,1,.69-1c.2-.29.4-.83.62-.84.77,0,.34-.66.55-1A44.35,44.35,0,0,0,290,61a56.66,56.66,0,0,0,2.92-6.69c.28-.75.38-1.57.69-2.3a2.64,2.64,0,0,0,.27-1c0-.36-.15-.77.27-1,.07-1.42.71-2.76.6-4.22a15.44,15.44,0,0,1,0-2.72c.15-1.48-.33-2.89-.31-4.34,0-.16-.16-.32-.22-.48a3,3,0,0,1-.33-1,7.59,7.59,0,0,0-1.17-3.4,23.63,23.63,0,0,1-1-2.16c-.28-.79-1.23-1.15-1.27-2.07A3.06,3.06,0,0,1,289,27.88a.32.32,0,0,0-.1-.1c-1.44-.78-2.37-2.29-4-2.83-.79-.81-2-.65-2.9-1.33-.7.14-1.2-.57-1.77-.53-1.15.07-2.21-.38-3.33-.34s-2.4,0-3.6,0a10,10,0,0,0-2.44.35c-1.39.43-2.75,1-4.12,1.5a2.77,2.77,0,0,0-.59.31c-1.14.84-2.24,1.73-3.42,2.52a3.89,3.89,0,0,0-1.41,1.41.8.8,0,0,1-.92.52c-.18-.77.25-1.45.29-2.18A7.9,7.9,0,0,1,261,25c.24-.72.06-1.53.29-2.33s.08-1.63.29-2.46a11.62,11.62,0,0,0,.05-2.29c.05-.73.22-1.46.27-2.19s0-1.25,0-1.87A3.6,3.6,0,0,1,262.19,13Zm13.63.93a13.25,13.25,0,0,0-3.2.16c-.79.17-1.64.17-2.46.34a15.64,15.64,0,0,0-3.59,1.41,2.32,2.32,0,0,0-1.17,1.56,3.15,3.15,0,0,0,.42,2.52,3,3,0,0,0,3.32.93,15.78,15.78,0,0,1,5.21-.91,13.91,13.91,0,0,1,5.06.25c1.18-.16,2.17.79,3.35.58,1.06.66,2.27,1,3.33,1.66a20.47,20.47,0,0,1,4.05,2.77,13.47,13.47,0,0,1,1.78,1.53c.52.71,1.14,1.36,1.71,2A19.47,19.47,0,0,1,295.56,32a6.74,6.74,0,0,1,.3.74c.49,1,.46,2.2.89,3.23a4.33,4.33,0,0,1,.26,1.62,9.14,9.14,0,0,1,0,1.57c-.16,1,.57,1.53.95,2.2.29.5,1,.48,1.66.44.38,0,.77,0,1.15,0a3,3,0,0,0,.63-.19,1.94,1.94,0,0,0,1.35-2.13,13.85,13.85,0,0,0-.22-4.35,24.29,24.29,0,0,1-.34-2.6c-.18-.82-1-1.44-.85-2.37-.69-.31-.6-1.11-.95-1.64s-.64-1.16-1-1.73A7.46,7.46,0,0,0,298.15,25c-.71-.65-.94-1.76-2-2-.43-1.25-1.78-1.66-2.42-2.71-2.28-1.33-4.37-3-6.85-4-.24-.1-.59-.06-.76-.22a5.63,5.63,0,0,0-2.47-1,8,8,0,0,0-3.34-.63c-.59-.61-1.4-.17-2.11-.44A7,7,0,0,0,275.82,13.91Z"/><path class="cls-4" d="M3.77,112a3.38,3.38,0,0,1,.68.56c.25.31.6.21.88.33a4.07,4.07,0,0,1,1.48.9,8.07,8.07,0,0,0,1.74,1.07A17.55,17.55,0,0,0,10.79,116c.72.35,1.44.68,2.18,1a6.84,6.84,0,0,1,1.92.85,7.86,7.86,0,0,0,1.95.92,7.41,7.41,0,0,0,1.94.84,19,19,0,0,1,3.67,1.57c1.19.48,2.39,1,3.6,1.36,1.43.48,2.83,1,4.26,1.53,1,.37,2.07.78,3.12,1.14s2.36.79,3.55,1.15a12.3,12.3,0,0,0,3.37.87c.72.61,1.75.45,2.47,1,.41.29.8.13,1.2.25a11.85,11.85,0,0,0,3.12.81c.57,0,1,.54,1.63.59a9.08,9.08,0,0,1,2.34.56,19.94,19.94,0,0,0,3.81.91,9.57,9.57,0,0,1,2.73.67,12.06,12.06,0,0,0,2.12.43c1.65.46,3.35.65,5,1.09a7.6,7.6,0,0,0,2.75.36,5.13,5.13,0,0,1,1.46.27c.49.09,1,.21,1.46.28s1-.14,1.47.29c0,0,.09,0,.14,0,1.3.1,2.6.18,3.9.3.68.06,1.36.2,2,.27s1.35.09,2.05.23c1.1.24,2.31-.07,3.43.09,3.7.54,7.4.17,11.1.25s7.38,0,11.07,0h5l.48-.57c.13.18.23.42.41.53a2.81,2.81,0,0,0,2.41.27,3.17,3.17,0,0,1,2.07.06l.48.28.2-.57H175.2a8.3,8.3,0,0,1,1,0c.09,0,.16.17.23.27-.19.61-.71.21-1.07.33a19.13,19.13,0,0,1-5.29,1.12,2.63,2.63,0,0,0-.63.22c-.38.12-.76.25-1.15.34-1.25.29-2.54.28-3.8.53a19.62,19.62,0,0,1-2.32.32,6.29,6.29,0,0,0-2.32.31c-2.23-.2-4.42.32-6.64.29-.22,0-.45,0-.66,0v.53H82.33l-.29-.29c-.12-.09-.25-.28-.37-.27-2.65.19-5.28-.44-7.93-.32A8.83,8.83,0,0,1,72,139c-.53-.11-1.12.23-1.63-.27-.15-.14-.56,0-.84,0-.64-.08-1.3.2-1.93-.18s-1.32.18-1.86-.38c0,0-.19,0-.28,0-1.21-.09-2.42-.18-3.62-.29-.21,0-.41-.2-.62-.24-1.11-.21-2.23-.46-3.34-.58s-2.29-.56-3.44-.75A12.56,12.56,0,0,0,53,136c-1.15-.05-2.14-.74-3.3-.74a2.76,2.76,0,0,1-.74-.27c-.94-.3-1.93-.37-2.87-.71s-1.9-.54-2.85-.77c-1.64-.4-3.22-1-4.85-1.49-1.1-.32-2.2-.7-3.29-1.06a2.16,2.16,0,0,1-.51-.16,5.21,5.21,0,0,0-3.16-.7c-.36-.25-.53-.72-1-.86a42.88,42.88,0,0,1-5.87-2.42,2.64,2.64,0,0,0-.93-.18,18.44,18.44,0,0,0-1.83-.8c-1.7-.52-3.1-1.76-4.89-2.07-.47-.64-1.27-.62-1.9-1a4.77,4.77,0,0,0-1.95-.83c-.85-.92-2.19-1-3.11-1.9a7.42,7.42,0,0,0-1.79-.86c-1.84-.95-3.53-2.12-5.27-3.23a17.21,17.21,0,0,1-2.25-1.84c-.4-.37-.81-.93-.56-1.44A1.57,1.57,0,0,1,1.61,112C2.33,112,3.05,112,3.77,112Z"/><path class="cls-5" d="M262.19,13a3.6,3.6,0,0,0-.28.88c0,.62,0,1.25,0,1.87s-.22,1.46-.27,2.19a11.62,11.62,0,0,1-.05,2.29c-.21.83-.07,1.69-.29,2.46s0,1.61-.29,2.33a7.9,7.9,0,0,0-.24,2.2c0,.73-.47,1.41-.29,2.18a6.2,6.2,0,0,1-.35,1.59,13.91,13.91,0,0,1-.25,1.89c-.58,1.73-.54,3.57-1.11,5.29-.19.6,0,1.35-.34,1.86s0,1.41-.54,1.94c-.17,1.2-.59,2.36-.79,3.53-.25,1.43-.78,2.78-1,4.21a15.41,15.41,0,0,1-.84,3.08c-.43,1-.63,2.13-1.07,3.15a29.17,29.17,0,0,0-.88,2.79,9.59,9.59,0,0,0-.9,2.79c-1,1.87-1.42,4-2.41,5.9-.39.73-.63,1.56-1,2.33s-.8,1.49-1.08,2.28a8.48,8.48,0,0,1-1,2.32c-.6.85-.75,1.91-1.28,2.77-1.27,2.1-2.24,4.36-3.51,6.45-1.05,1.73-2,3.52-3.16,5.16-.1.13-.08.35-.11.52s-.27.51-.46.56c-.59.13-.49.86-1,1a1.15,1.15,0,0,1-1,1.29.28.28,0,0,0-.14.21c.12.59-.39.81-.67,1.17s-.28.63-.52.76a1.84,1.84,0,0,0-.7.71,14.75,14.75,0,0,1-2.82,3.43,1.54,1.54,0,0,0-.47.52c-.38,1-1.54,1.36-1.87,2.38-.68.11-.9.79-1.4,1.11s-.66,1-1.28,1.35a6.22,6.22,0,0,0-1.34,1.28c-.1.1-.27.19-.29.31-.12.57-.69.65-1,1a5.75,5.75,0,0,1-1.26,1.08c-.47.25-1.11.63-1,1.39a3.47,3.47,0,0,0-1,.31,5.81,5.81,0,0,0-1.09,1.07c-.31.39-1,.31-1.08.92-.58,0-.94.44-1.44.58-.85.22-1.6-.32-2.44-.3-1.9,0-3.79,0-5.69,0a2.16,2.16,0,0,0-1.2.19,1,1,0,0,1-1.32-.2c0-.18,0-.45.11-.52,1.68-1.08,3.27-2.3,4.91-3.44,2-1.39,3.88-2.91,5.77-4.43,1.69-1.36,3.2-3,4.79-4.45.17-.16.31-.43.51-.49.94-.27,1.18-1.33,2-1.73.29-.92,1.17-1.33,1.73-2s1.14-1.36,1.73-2c.74-.85,1.51-1.67,2.22-2.54.47-.56.84-1.19,1.27-1.77.66-.88,1.34-1.75,2-2.63.41-.55.81-1.1,1.17-1.68.92-1.48,1.81-3,2.73-4.47,1.31-2.09,2.46-4.25,3.61-6.42,1-2,2-4,2.88-6a30.33,30.33,0,0,0,1.39-3c.51-1.71,1.27-3.32,1.89-5s1.29-3.5,1.89-5.26c.33-1,.66-1.93,1-2.88a30.85,30.85,0,0,0,1-3.06c.52-1.85,1-3.7,1.52-5.57.22-.89.44-1.81.74-2.7a21.78,21.78,0,0,0,.65-3.33c.1-.08.28-.16.28-.23-.07-1.21.53-2.29.71-3.45a3.27,3.27,0,0,0,.16-.78c-.13-1.36.5-2.57.7-3.87a6,6,0,0,0,.16-.93,8.36,8.36,0,0,1,.54-2.93,1.93,1.93,0,0,0,0-.42,20.08,20.08,0,0,1,.33-3c.21-.83.05-1.71.3-2.45s0-1.7.27-2.47c.31-1,.05-2,.3-2.89s0-2.07.28-3A19.79,19.79,0,0,0,258.15,5c0-1.48,0-3,0-4.44h.58c1.43.19,2.61.72,3,2.28a9.55,9.55,0,0,1,.47,2.39C262.17,7.84,262.19,10.41,262.19,13Z"/><path class="cls-6" d="M77.73,111.68l-1.44-.29c0-.14.06-.36,0-.42-1.33-1.06-2.7-2.07-4-3.17a45.44,45.44,0,0,1-3.73-3.47c-.56-.59-1.18-1.1-1.76-1.67s-.77-1-1.26-1.36a12.7,12.7,0,0,1-1.15-1.36c-.45-.5-1-.91-1.4-1.44-.9-1.18-1.88-2.29-2.84-3.43C59,93.71,58,92.23,57,90.77c-.75-1.07-1.38-2.23-2.19-3.24-.41-.51-.4-1.2-1-1.65s-.57-1-.88-1.48c-2.19-3.43-3.8-7.15-5.63-10.76a42.32,42.32,0,0,1-2.17-5.14c-.37-1-.82-2-1.24-3.07-.55-1.31-1.09-2.63-1.56-4-.54-1.54-1.1-3.09-1.58-4.67-.58-1.9-1.27-3.78-1.86-5.69A24.7,24.7,0,0,1,38,47.18a1.11,1.11,0,0,0-.13-.52c-.57-.77-.41-1.73-.7-2.58-.13-.37-.16-.78-.28-1.18-.29-.94-.35-2-.63-2.91a25,25,0,0,0-.79-3.26c-.26-.56.13-1.31-.34-1.87,0-1.48-.74-2.86-.6-4.36a6.29,6.29,0,0,0-.26-1.32c-.05-.41.09-.85-.29-1.18.17-.9-.33-1.74-.26-2.6a19.5,19.5,0,0,0-.33-2.33c0-.78.23-1.6-.27-2.33,0,0,0-.09,0-.14.09-1.79-.5-3.55-.28-5.34-.51-3.5-.21-7-.3-10.52a4.16,4.16,0,0,1,2.37-4A3.61,3.61,0,0,1,36.29.6v.86c0,.68,0,1.35,0,2,.06.87.22,1.74.27,2.61a12.29,12.29,0,0,0,0,2.72,18.58,18.58,0,0,1,.25,3.63c.06.68.2,1.36.28,2s-.19,1.32.28,1.9c0,.06,0,.19,0,.28a33.38,33.38,0,0,0,.32,3.47,8.11,8.11,0,0,0,.45,2.11,1.84,1.84,0,0,1,.09.53,27.77,27.77,0,0,0,.84,5.12,24.67,24.67,0,0,1,.33,2.46c.18,1,.37,2,.62,2.91a10.69,10.69,0,0,1,.53,2.51c0,.08.18.15.27.23,0,.43-.15.94,0,1.28a11.83,11.83,0,0,1,.8,2.83c.49,1.85.91,3.73,1.47,5.57.45,1.5.87,3,1.36,4.47.7,2.11,1.36,4.23,2.11,6.32C47.3,58.26,48,60,48.72,61.8s1.46,3.61,2.26,5.39c.51,1.13,1.27,2.16,1.67,3.33a12.69,12.69,0,0,0,1.29,2.76c.7,1.06,1.13,2.23,1.78,3.3S57,78.83,57.66,80s1.2,2,1.83,3c.29.46.66.87,1,1.32s.55.93.87,1.36q1.29,1.77,2.63,3.52a13.09,13.09,0,0,1,1.29,1.62,10.41,10.41,0,0,0,2.06,2.6c.1.1.24.18.3.3a5,5,0,0,0,1.77,1.92l.87.86c0,.17,0,.4.1.52A3.81,3.81,0,0,0,72,98.16l.58.57a61.89,61.89,0,0,0,6.08,5.93c.06.06.17.06.24.12.62.46,1.24.94,1.85,1.41,1,.8,2.09,1.61,3.19,2.36s2.29,1.6,3.49,2.33c.1.06.08.33.11.51a9.93,9.93,0,0,1-1.17.28,11.1,11.1,0,0,1-1.29,0Z"/><path class="cls-4" d="M221.61,108.8c-.06-.76.58-1.14,1-1.39a5.75,5.75,0,0,0,1.26-1.08c.33-.33.9-.41,1-1,0-.12.19-.21.29-.31a6.22,6.22,0,0,1,1.34-1.28c.62-.32.74-1,1.28-1.35s.72-1,1.4-1.11c.33-1,1.49-1.39,1.87-2.38a1.54,1.54,0,0,1,.47-.52A14.75,14.75,0,0,0,234.41,95a1.84,1.84,0,0,1,.7-.71c.24-.13.33-.52.52-.76s.79-.58.67-1.17a.28.28,0,0,1,.14-.21,1.15,1.15,0,0,0,1-1.29c.49-.18.39-.91,1-1,.19-.05.31-.36.46-.56a4.18,4.18,0,0,0,.91.57A37.06,37.06,0,0,0,245.33,91c1.78.27,3.53-.39,5.32-.28a.22.22,0,0,0,.14,0c.46-.52,1.06-.19,1.6-.28l1.74-.29.29-.29h1.44c.12.1.24.27.37.28,1.39,0,2.78,0,4.16,0a9.48,9.48,0,0,0,1.47-.27c.44-.08.93.17,1.33-.26.09-.1.37,0,.56,0,1.26.09,2.38-.5,3.59-.7a15.21,15.21,0,0,1,1.53-.42c.64,0,.9-.94,1.63-.6.47-.36,1.16-.23,1.56-.78.09-.12.45-.11.67-.08.46.07.34-.33.51-.57h1.17l1.16-1.17a2,2,0,0,0,1.41-.47c.74-.63,1.72-.93,2.49-1.62a18.49,18.49,0,0,1,2.37-1.53,13.26,13.26,0,0,0,1.28-1c.4-.31.83-.58,1.2-.92a9.75,9.75,0,0,1,2.37-1.91c.28-.13.41-.55.65-.8.7-.73,1.43-1.42,2.13-2.14a7.17,7.17,0,0,0,1.34-1.6c.31-.61,1.15-.84,1.31-1.61.87-.47,1-1.52,1.71-2.15A7.15,7.15,0,0,0,295,68c.31-.46.42-1.06,1-1.27,0-.58.44-1,.7-1.43a18.06,18.06,0,0,1,1.78-3c.45-.51.49-1.16.92-1.67s1-.81.76-1.53c.69-.3.39-1.24,1-1.6a.27.27,0,0,0,.13-.22c-.2-.82.46-1.17.89-1.66,0-.28-.1-.61,0-.84.22-.44.69-.8.79-1.25s.06-.93.51-1.23c0-.85.6-1.49.69-2.3a1.66,1.66,0,0,1,.23-.63,20.74,20.74,0,0,0,1.21-4c.19-.6,0-1.41.85-1.71a12.33,12.33,0,0,0,0,1.72,10.62,10.62,0,0,1-.36,3.33,17.51,17.51,0,0,1-.73,3.13,15.94,15.94,0,0,0-.62,2.47,24.6,24.6,0,0,1-1.07,3.17,32.68,32.68,0,0,1-1.91,4.53c-.76,1.46-1.48,2.94-2.24,4.39-.23.44-.55.83-.81,1.25-.5.8-.94,1.63-1.45,2.43a16.4,16.4,0,0,0-2.05,3.32c-.51.15-.62.69-1,1a2.4,2.4,0,0,0-.47.66,7.08,7.08,0,0,1-1.16,1.5c-1.38,1.56-2.83,3.06-4.26,4.57-.8.84-1.6,1.66-2.45,2.44a7.47,7.47,0,0,1-1.79,1.56c-.66.31-.94,1.18-1.73,1.4-.27.73-1,.91-1.55,1.38A3.57,3.57,0,0,1,279,89.27c-1,1.12-2.44,1.62-3.54,2.62a14.37,14.37,0,0,1-1.52.8,59.48,59.48,0,0,1-6.19,3.45c-1,.52-2,.94-3,1.44a7.76,7.76,0,0,1-3,1.15c-1.54,1-3.38,1.33-5,2.12-.55.27-1.25.31-1.79.54s-1.35.44-2,.69a15.93,15.93,0,0,1-2,.67c-2,.46-3.93,1.33-6,1.45-2.07.93-4.39.87-6.5,1.69-.69.26-1.55,0-2.32.31a7.77,7.77,0,0,1-1.45.3c-1.31.24-2.63.4-3.93.63a19.8,19.8,0,0,0-3.84.77,12.16,12.16,0,0,1-2.45.34C223.46,108.39,222.54,108.61,221.61,108.8Zm19.86-9.49c0-.49.07-.71,0-.84a3.49,3.49,0,0,1-.27-2c0-.63,0-1.25,0-1.87,0-1.28-.48-1.77-1.71-1.87-.15,0-.35.06-.43,0-.67-.67-1.16-.05-1.68.25-.13.08-.16.35-.23.52.75-.07,1.37-.17,2-.18,1.13,0,1.18,0,1.18,1.22a1.73,1.73,0,0,1-.05.41c-.88.15-1.66.23-2.41.42a1.83,1.83,0,0,0-1.27,1.73c0,.33,0,.66,0,1.07a7.46,7.46,0,0,0,1.65.87c1,.24,1.64-.64,2.49-.85Z"/><path class="cls-5" d="M152.55,140.17v-.53c.21,0,.44,0,.66,0,2.22,0,4.41-.49,6.64-.29a6.29,6.29,0,0,1,2.32-.31,19.62,19.62,0,0,0,2.32-.32c1.26-.25,2.55-.24,3.8-.53.39-.09.77-.22,1.15-.34a2.63,2.63,0,0,1,.63-.22,19.13,19.13,0,0,0,5.29-1.12c.36-.12.88.28,1.07-.33.49.15.85-.29,1.31-.29H192v1.4l.22-.13.45.75h8.9a.26.26,0,0,0,.12-.05.52.52,0,0,0,.1-.11v-1.86c1,0,2-.08,3,0,1.34.13,2.6-.32,3.91-.31s2.68,0,4,0c.55,0,1-.4,1.61-.32a1.55,1.55,0,0,0,1.46-.25c.05-.05.19,0,.28,0a24.86,24.86,0,0,0,3.47-.32c1.5-.34,3.11-.11,4.54-.82.11-.06.28,0,.43,0a4.31,4.31,0,0,0,1.76-.26c.48-.2,1.12.15,1.59-.32,1.82.16,3.43-1,5.25-.86,1.32-.6,2.87-.34,4.14-1.1,1.14.14,2.07-.68,3.2-.64.24,0,.48-.2.74-.27.43-.11.88-.2,1.32-.29a4.13,4.13,0,0,0,1.3-.32c.44-.28.9-.15,1.33-.28.68-.2,1.36-.44,2-.68A22.25,22.25,0,0,1,250,128c.9-.21,1.78-.56,2.67-.85a31.19,31.19,0,0,0,4.16-1.38,3.46,3.46,0,0,1,1.62-.54c.83.07,1.33-.56,2.07-.65a9.48,9.48,0,0,0,2-.71c1.62-.61,3.2-1.33,4.86-1.81.75-.21,1.33-.72,2.07-.9a7.06,7.06,0,0,0,2.11-.82c.32-.21.8-.17,1.14-.35a8.55,8.55,0,0,0,2.18-1.14c.54,0,.89-.34,1.32-.57a11.32,11.32,0,0,0,1.53-.73c.46-.33,1.11-.2,1.47-.71.21,0,.55.14.57-.29a2.74,2.74,0,0,0,1.73-.86c.22,0,.55.14.57-.29a.94.94,0,0,0,.29,0,50,50,0,0,0,5.46-3,.68.68,0,0,0,.3-.73,8.59,8.59,0,0,1,2.47.27c.76.16,1.54.19,2.36.28v1.37a28.81,28.81,0,0,1-4.58,3.61c-1.93,1.35-4.13,2.19-6,3.55-1.11.21-1.85,1.3-3.05,1.33a16.61,16.61,0,0,1-3.57,1.8,76.59,76.59,0,0,1-7.22,3.06c-.74.25-1.44.66-2.18,1-1,.43-2.11.71-3.14,1.11s-1.95.86-3,1.19-2.14.62-3.16,1c-1.56.65-3.3.81-4.76,1.71-1.6.07-3,.8-4.56,1.16a19.38,19.38,0,0,0-3.5.93c-.65.29-1.35,0-2,.47-.4.29-1.09.13-1.57.35s-1.23,0-1.58.31c-.5.39-1.18-.06-1.53.53-1.35-.08-2.58.61-3.93.59a5.76,5.76,0,0,0-1,.26,5.17,5.17,0,0,0-1.06.23c-.61.25-1.38-.06-2,.36-1.14-.2-2.2.36-3.34.3-.58,0-1.11.37-1.75.29a1.8,1.8,0,0,0-1.61.26c-.05.05-.19,0-.28,0-2-.07-3.93.48-5.93.29-.93-.08-1.79.42-2.76.31a22.56,22.56,0,0,0-2.73,0l-.45.58c-.3-.1-.7-.36-.87-.26a3.56,3.56,0,0,1-2.05.25q-24.28,0-48.56,0a12.59,12.59,0,0,1-3.91-.24A5.75,5.75,0,0,0,152.55,140.17Z"/><path class="cls-3" d="M82.33,140.17h70.22c0,.62-.2,1.3.46,1.79a.74.74,0,0,1,0,.72c-.38.36-.44,1.15-1.23,1l-.1.53H85.74a16.56,16.56,0,0,1-2.89-.29,1.62,1.62,0,0,1-1-2.51A9.48,9.48,0,0,0,82.33,140.17Z"/><path class="cls-4" d="M151.68,144.2l.1-.53c.79.16.85-.63,1.23-1a.74.74,0,0,0,0-.72c-.66-.49-.41-1.17-.46-1.79a5.75,5.75,0,0,1,2.74-.25,12.59,12.59,0,0,0,3.91.24q24.28,0,48.56,0a3.56,3.56,0,0,0,2.05-.25c.17-.1.57.16.87.26.2.44.39.88.59,1.31.49,1.05.35,1.55-.64,2a2.93,2.93,0,0,1-1.4.41,10,10,0,0,0-1.3.26,11,11,0,0,1-1.28,0l-.1-.24-.19.24Z"/><path class="cls-3" d="M257,111.68v.43a.32.32,0,0,1-.1.1.33.33,0,0,1-.13,0h-33.1v1.09c.78.27,1.5-.34,2.28-.39a15.74,15.74,0,0,1,3.07,0,9.19,9.19,0,0,0,1.07.14q12.93,0,25.87,0a1.63,1.63,0,0,0,1.21-.23c.18-.14,1-.38,1,.44.72,0,1,.47,1.55,1-.3.23-.5.53-.7.53-.5,0-1,.16-1.52-.14a6,6,0,0,0-3.16-.71c-7.62,0-15.23,0-22.85,0a3.31,3.31,0,0,0-1.61.28,7.52,7.52,0,0,1-3,.31l-.39,1.29c.82.5.78.27-.1,1l1.12,1.18,1.74-.74a5.3,5.3,0,0,1,.1,1.79.66.66,0,0,1-.74.65h-1.9c-.68-.38-.89-1.28-1.79-1.15-.27-.94-1-.55-1.61-.57-1.53,0-3.06,0-4.59,0v-.57a26.36,26.36,0,0,1,5.75-.29l.1.24.19-.24.83-.68v-1.28c-.15,0-.34,0-.39-.07a1.55,1.55,0,0,0-1.61-.56h-.56v-2.17a3.8,3.8,0,0,0-.8-.41,5.74,5.74,0,0,0-.93-.06v-.53a10.09,10.09,0,0,0,1.18.28,11.1,11.1,0,0,0,1.29,0Z"/><path class="cls-7" d="M178.74,0c0,.17-.08.5-.1.5-.58,0-.9.38-1.29.71a4.1,4.1,0,0,1-.92.51.66.66,0,0,0-.68-.57h-1q-18.74,0-37.48,0a8.72,8.72,0,0,1-4.58-.77V0Z"/><path class="cls-7" d="M93,0c0,.17,0,.47-.11.51a6,6,0,0,1-2.32.66c-11.2,0-22.41,0-33.61,0-1.15,0-2.3,0-3.45,0a1.51,1.51,0,0,0-1.61.77c-.36-.35-.62-.6-.88-.87a1.15,1.15,0,0,0-1-.48c-.36,0-.18-.35-.23-.55Z"/><path class="cls-7" d="M130.39,0l.31,1.15h-35c-.48,0-1,.08-1.54.13V0Z"/><path class="cls-3" d="M288.09,111.68a.68.68,0,0,1-.3.73,50,50,0,0,1-5.46,3,.94.94,0,0,1-.29,0v-.82l-.94,0a2.91,2.91,0,0,1-1.34-.26,4.25,4.25,0,0,0-2-.33c-4.65,0-9.3,0-13.94,0a4.84,4.84,0,0,0-2.5.58l-1.12-.74v-.56a1,1,0,0,1,.23-.14c.95-.21,1.83.29,2.76.29,5.13,0,10.26,0,15.38,0a23.32,23.32,0,0,1,2.9-.26l.83.09a16,16,0,0,0,2.33-.22,5.22,5.22,0,0,0,.38-.54l-.17-.15a.25.25,0,0,0-.12,0H257.58v-.58Z"/><path class="cls-7" d="M201.76,0c.13.6-.45.77-.72,1.15-6.44,0-12.88,0-19.33,0a5.27,5.27,0,0,1-1.54-.39V0Z"/><path class="cls-7" d="M221.32,111.39v.53a5.74,5.74,0,0,1,.93.06,3.8,3.8,0,0,1,.8.41v2.17h-9.21l.1-.53c.6.12,1-.33,1.31-.64A9.52,9.52,0,0,1,217,112.1c.06,0,0-.28,0-.42.5-.14.86-.62,1.44-.58.12.1.23.28.35.28C219.64,111.4,220.48,111.39,221.32,111.39Z"/><path class="cls-7" d="M36.29,1.46V.6c.35-.62,1-.58,1.53-.57H48.38V1.32a2.94,2.94,0,0,1-1.83.44c-1.53,0-3.06,0-4.59,0a1.18,1.18,0,0,1-1.16-.59c-.9,0-1.76,0-2.62,0C37.55,1.22,36.92,1.37,36.29,1.46Z"/><path class="cls-7" d="M215,0c0,.37-.18.86.48.94.07,0,.09.42.14.75-1.69,0-3.35.31-5-.4a2.65,2.65,0,0,0-.94-.14c-1.09,0-2.18,0-3.36,0V0Z"/><path class="cls-7" d="M224.2,0c0,.27,0,.63.12.8.46.5-.06.64-.26.92a15.6,15.6,0,0,1-3.42-.05,24.85,24.85,0,0,0-3.25-.26c-.25-.48-1-.63-1-1.41Z"/><path class="cls-1" d="M258.74.6h-.58a1.79,1.79,0,0,0-1-.3,12.15,12.15,0,0,1-1.81,0c-.12,0-.24-.18-.36-.27h3.75Z"/><path class="cls-1" d="M229.38,0,229,.31,228.81,0Z"/><path class="cls-3" d="M206.36,144.2l.19-.24.1.24Z"/><path class="cls-3" d="M82,139.88l.29.29Z"/><path class="cls-8" d="M87.51,111.39c0-.18,0-.45-.11-.51-1.2-.73-2.34-1.54-3.49-2.33s-2.14-1.56-3.19-2.36c-.61-.47-1.23-1-1.85-1.41-.07-.06-.18-.06-.24-.12a61.89,61.89,0,0,1-6.08-5.93c.36-.13.8-.68,1,.21a3.77,3.77,0,0,0,.85.07c-.69-1.94-.2-3.84-.42-5.65L73,92.42a6.73,6.73,0,0,0-3.27.37c-.18.08-.28.33-.46.55l.59.54a3.28,3.28,0,0,1,2.91-.24V95A11.36,11.36,0,0,0,71,95a8.66,8.66,0,0,0-1.49.55.32.32,0,0,1-.14,0,5,5,0,0,1-1.77-1.92c-.06-.12-.2-.2-.3-.3a10.41,10.41,0,0,1-2.06-2.6A13.09,13.09,0,0,0,64,89.13q-1.34-1.75-2.63-3.52c-.32-.43-.57-.91-.87-1.36s-.68-.86-1-1.32c-.63-1-1.24-2-1.83-3s-1.28-2.26-1.94-3.37-1.08-2.24-1.78-3.3a12.69,12.69,0,0,1-1.29-2.76c-.4-1.17-1.16-2.2-1.67-3.33-.8-1.78-1.54-3.59-2.26-5.39s-1.42-3.54-2.06-5.33c-.75-2.09-1.41-4.21-2.11-6.32-.49-1.47-.91-3-1.36-4.47-.56-1.84-1-3.72-1.47-5.57a11.83,11.83,0,0,0-.8-2.83c-.18-.34,0-.85,0-1.28H192c.29.63.84.27,1.24.27,9.92,0,19.85,0,29.77,0,.32,0,.63,0,1,.05-.14.4-.27.69-.34,1a8.4,8.4,0,0,1-.32,1.6,1.78,1.78,0,0,0-.25,1c.1.53-.3.76-.56,1-.12.69.26,1.48-.52,2a.28.28,0,0,0-.07.25c.27,1.1-.64,1.87-.76,2.86-.1.8-.8,1.39-.82,2.25A10.77,10.77,0,0,1,220,49.8c-.17,1.07-1.15,1.86-1,3-.76.1-.52.71-.59,1.17a.19.19,0,0,1-.1.1c-.58.33-.47.89-.45,1.39a.9.9,0,0,1-.36.86c-.39.29-.09.75-.25,1s-.74.19-.56.76a.63.63,0,0,1-.1.52,1.41,1.41,0,0,0-.52,1.09c0,.08-.31.14-.52.23a2.52,2.52,0,0,1-.51,1.78,4.15,4.15,0,0,0-.88,1.9c-.1,1-1,1.64-1.1,2.58-.56.21-.34.81-.59,1.2-.59.94-1.6,1.68-1.55,3-.55.78-1.1,1.57-1.72,2.43v.76c-.17.06-.48.13-.48.18,0,.72-.55,1-.93,1.5-.52.63-.7,1.51-1.43,2,0,0,0,.09,0,.13.35.75-.42,1-.72,1.38-.5.6-.63,1.52-1.46,1.84-.18.88-1.4,1.14-1.33,2.18,0,0-.18,0-.24.1a3.11,3.11,0,0,0-.83.73c-.13.25,0,.63,0,.89-.27.12-.48.15-.59.27-.59.61-1.12,1.27-1.72,1.87s-1.29,1.17-1.93,1.77c-.16.15-.22.41-.37.56l-3.43,3.4-1.17,1.15c-.29.28-.55.6-.86.85-.12.1-.51.08-.51.1,0,.74-.81.72-1.07,1.27a1.49,1.49,0,0,1-1.44,1c-.23,0-.62.48-.7.8-.15.63-.71.18-1,.53a11.13,11.13,0,0,1-3.46,2.66c-.12.73-.7.54-1.16.57a7.07,7.07,0,0,1-.73.72,11.88,11.88,0,0,1-2,1.4,12.32,12.32,0,0,0-1.59,1c-.87.53-1.53,1.48-2.7,1.48a.76.76,0,0,0-.45.28c-.24.29-.82.24-.8.79-.93.06-1.47.84-2.23,1.22a6.94,6.94,0,0,0-2.18,1.26,2.55,2.55,0,0,1-2.15,1.08,5.21,5.21,0,0,1-.62.53c-.25.13-.7-.27-.8.29H87.51Zm65.9-13V99c2,.08,2,.08,3.24-.53.37.53.37.53,1.08.52,0-.41.17-1,0-1.21-.44-.53-.13-1.09-.25-1.61V95c.24,0,.6.1.7,0,.62-.77,1.93-.59,2.3-1.68a18.59,18.59,0,0,0,3.42-2.83c.59-.56,1.11-1.19,1.73-1.69s.84-1.25,1.63-1.44a19.18,19.18,0,0,1,3-3.51,1.94,1.94,0,0,0,.4-.41c1.16-2.06,2.93-3.69,4.08-5.77a11.18,11.18,0,0,0,.91-1.49c.21-.58.72-1,.92-1.63.12-.43.7-.78.89-1.32a6.94,6.94,0,0,1,.58-.91c.12-.23.12-.52.22-.77s.62,0,.54-.46c-.14-.82.47-1.39.8-2a7.52,7.52,0,0,0,1-2.79c.32-.16.56-.27,5.05-1.82-.87,0-1.59,0-2.31,0-.11,0-.21.21-.33.23-.7.14-.77,1.07-1.47,1.19a.75.75,0,0,1-.15,0c.05.59-.44,1-.57,1.49.3.71.86.55,1.38.48a3.33,3.33,0,0,1,2.08-2.26l.84.42a1,1,0,0,1-.37,1,5.85,5.85,0,0,0-1.64,2A2,2,0,0,0,183,71a3,3,0,0,0,1.84,1.5,1.09,1.09,0,0,0,.69-.06c1.21-.58,2.35-1.24,2.45-2.81,1,.49,1.18.4,1.36-.61-1.28-1.54-2.53-3-8.05-3.13a2.23,2.23,0,0,1,.17-.92c.54-.89.83-1.92,1.4-2.8a2.2,2.2,0,0,0,.45-1.51.69.69,0,0,1,.57-.81l.45.59c.85,1,1.77,2,2.52,3.14.52.76,1.21,1.36,1.69,2.17a14.76,14.76,0,0,0,1.9,2.23.65.65,0,0,0,1,0,.63.63,0,0,0,.06-1c-1-1.28-1.87-2.74-3-3.92a5.46,5.46,0,0,1-.53-.64c-.91-1.19-1.83-2.37-2.71-3.5l-1,.32a6.42,6.42,0,0,1,.83-2.68c.55-1.26.59-2.72,1.47-3.85,0,0,0-.1,0-.15.15-2,1.41-3.8,1.46-5.86a4.72,4.72,0,0,0,.81-2.39c.19-.89.48-1.74.65-2.63A10.44,10.44,0,0,1,190,39.4a2,2,0,0,0,.27-1,4.86,4.86,0,0,1,0-1,7.44,7.44,0,0,1,.3-1H63.35a4.61,4.61,0,0,1,.26,1.22,13.75,13.75,0,0,0,.74,3.88,30.22,30.22,0,0,1,1,4.9,1.14,1.14,0,0,0,.1.53,18.68,18.68,0,0,1,1.33,4.49c.16.56.32,1.11.5,1.66a12.51,12.51,0,0,1,1,3.35,2,2,0,0,0,.47,1.22,3,3,0,0,1,.61,1.48,7.61,7.61,0,0,0,.39,1.28c.24.58.77,1.14.75,1.69,0,.75.67,1,.73,1.75a4,4,0,0,0,1,2.14c.37.43.15,1,.63,1.34a3.05,3.05,0,0,0,.8,2.1,19.39,19.39,0,0,1,1.43,2.71,5.35,5.35,0,0,0,.52,1.08c.6.88,1.09,1.85,1.65,2.76.38.62.8,1.21,1.22,1.8s.65,1.38,1.11,2,.88,1.18,1.32,1.76a23.84,23.84,0,0,0,2.84,3.59,22.93,22.93,0,0,1,1.78,2.12c.31.36.81.59,1,1,.39.64,1.25.85,1.45,1.64,1.38,1,2.49,2.25,3.8,3.3A8,8,0,0,0,94,94.77,7,7,0,0,1,95.53,96a3.18,3.18,0,0,0,1.12.73c.42.06.66.39,1,.46.71.15.91,1,1.73,1.07.6.07,1,.89,1.81.81.37.51.91.52,1.47.63s.81.72,1.25.77c.86.08,1.39.85,2.22.9a9.79,9.79,0,0,1,2.25.83,8,8,0,0,0,1.45.31,1.9,1.9,0,0,1,1.41.48,2.46,2.46,0,0,0,1.4.38,6.77,6.77,0,0,0,2.32.3c1.38.72,2.95.43,4.4.83a6.26,6.26,0,0,0,2.44,0c.82-.1,1.53.37,2.33.31a38.43,38.43,0,0,0,4.78-.23c1.5-.28,3.08,0,4.62-.32a33.13,33.13,0,0,1,3.47-.31,1.12,1.12,0,0,0,.26-.08c1.69-.62,3.49-.76,5.2-1.34a14.06,14.06,0,0,0,2.66-.88,2.14,2.14,0,0,1,.74-.28,10.26,10.26,0,0,0,2.66-.88c1.37-.63,2.71-1.34,4.06-2Zm49.23-39.33.85-1a11.47,11.47,0,0,0-.9-1.28c-.73-.78-1.29-1.68-1.94-2.51a1.31,1.31,0,0,1-.11-1.49c.25-.71.83-.75,1.1-1,.84,0,1,.59,1.31,1,.86,1.22,1.93,2.26,2.86,3.41.07.09.24.11.39.18l.8-.93a34.88,34.88,0,0,1-2.23-2.92,11.9,11.9,0,0,0-1.46-1.69,1.64,1.64,0,0,0-1.63-.53,3,3,0,0,0-1.56.67,7,7,0,0,0-.83,1.9,2.47,2.47,0,0,1-.46,0,2.5,2.5,0,0,0-2.38,1.17,6.31,6.31,0,0,0-.61,1.4c-.73-.32-1-.31-1.19.09s-.06.68.23,1c.63.68,1.23,1.4,1.83,2.11a4.42,4.42,0,0,1,.44.53,7.9,7.9,0,0,0,1.91,2.35c.93-.17.93-.17,1-1.23-.84-1-1.66-1.85-2.43-2.8a3.32,3.32,0,0,1-.7-1.27,1.36,1.36,0,0,1,.28-1.14,1.48,1.48,0,0,1,1.48-.46C200.34,55.94,201,57.88,202.64,59.11Zm-9.11.8c-.44.44-.8.82-1.18,1.17a5.75,5.75,0,0,0-1,1.46,1.92,1.92,0,0,0,.33,2.38,13.06,13.06,0,0,0,1,1c2,.13,3.12-.92,3.8-2.65h1.26c0-.6,0-.62-.56-1.36-1.08-1.38-2.18-2.74-3.25-4.1-.87.22-1.64-.12-2.44.31a7.15,7.15,0,0,0-1.94,1.81,4.15,4.15,0,0,0-.53,1.21l1,.51a17.75,17.75,0,0,1,1.06-1.6A1.44,1.44,0,0,1,193.53,59.91Zm16.66-2.78a4.5,4.5,0,0,0,.62-4.38c-.61-2.31-1.42-4.58-2.16-6.86a3.75,3.75,0,0,0-.49-.8c-.21.16-.32.23-.42.32-.43.41-.86.81-.23,1.39a20.69,20.69,0,0,0,1.14,3.55c0,.09-.08.23-.14.36-1.19-.72-2.37-1.37-3.48-2.12a1.39,1.39,0,0,0-1.06-.2,2.72,2.72,0,0,0-.83.47c.18.21-.1.48.33.69,1,.49,1.93,1.12,2.89,1.7s1.92,1.13,2.87,1.73a2.28,2.28,0,0,1,.51,2.22l.27.27-1.33.66Z"/><path class="cls-7" d="M206.36,3.19c-3.11-.53-6.25-.23-9.37-.28s-6.43,0-9.64,0-6.33,0-9.49,0c-.54,0-1.14-.23-1.62.26a.43.43,0,0,1-.41,0c-.74-.5-1.56-.26-2.33-.27q-18.42,0-36.82,0c-.64,0-1.32-.23-1.91.27a.43.43,0,0,1-.41,0c-.63-.51-1.37-.26-2.05-.26q-19.84,0-39.69,0a2.89,2.89,0,0,0-1.91.27.65.65,0,0,1-.56,0,5.53,5.53,0,0,0-2.9-.26q-16.34,0-32.65,0c-.65,0-1.34-.14-1.79.57-.06.08-.37,0-.55,0a6.41,6.41,0,0,0-.41,1.41,6.33,6.33,0,0,0,.27,1.47c-.64,0-.89-.41-1.15-.86-.11-.19-.21-.39-.31-.59.27-.62,1-1.15.08-2H52.4c.29-.27.45-.57.63-.58a3.87,3.87,0,0,0,2-.44,2.58,2.58,0,0,1,1.23-.15H87.6c.33,0,.76-.09,1,.08.91.73,2,.43,3,.48a1,1,0,0,0,.53-.1,4.69,4.69,0,0,1,2.68-.47H128.7c.54,0,1.1-.15,1.62.26a.86.86,0,0,0,.81,0c.48-.44,1-.1,1.45-.25l.21.6h1.59c.18,0,.46,0,.53-.08.48-.7,1.19-.48,1.82-.48h39.7v.52a1.45,1.45,0,0,0,1.28-.18,2.48,2.48,0,0,1,1.58-.35q10.38,0,20.78,0a2.47,2.47,0,0,1,1.56.36,1.46,1.46,0,0,0,1.07.22c1.19,0,2.37,0,3.66,0Z"/><path class="cls-7" d="M52.12,6.36c.09,0,.23,0,.28,0,.61.68,1.42.58,2.21.58h85.56v.53c-.4,0-.82,0-1.23,0H56.21c-.77,0-1.64-.31-2.23.54,0,.07-.27,0-.41,0A1.75,1.75,0,0,1,52.12,6.36Z"/><path class="cls-7" d="M141,6.93h65.15l.74-1.1V4.21c-.25-.19-.78-.17-.57-.73.4-.09.85.19,1.22-.19a.53.53,0,0,1,.52-.08c.65.45,1.36.21,2.05.27s.79.25.81.87c0,.37,0,.75,0,1.3-.38-.25-.61-.37-.8-.53a4.78,4.78,0,0,1-.45-.48h-1.61a3.87,3.87,0,0,1-1,2.85H141Z"/><path class="cls-7" d="M226.55,2.09V.63h.93C227.05,1.09,227.39,1.83,226.55,2.09Z"/><path class="cls-9" d="M166.07,111.39c.1-.56.55-.16.8-.29a5.21,5.21,0,0,0,.62-.53,2.55,2.55,0,0,0,2.15-1.08,6.94,6.94,0,0,1,2.18-1.26c.76-.38,1.3-1.16,2.23-1.22,0-.55.56-.5.8-.79a.76.76,0,0,1,.45-.28c1.17,0,1.83-1,2.7-1.48a12.32,12.32,0,0,1,1.59-1,11.88,11.88,0,0,0,2-1.4,7.07,7.07,0,0,0,.73-.72c.46,0,1,.16,1.16-.57A11.13,11.13,0,0,0,187,98.09c.31-.35.87.1,1-.53.08-.32.47-.81.7-.8a1.49,1.49,0,0,0,1.44-1c.26-.55,1.11-.53,1.07-1.27,0,0,.39,0,.51-.1.31-.25.57-.57.86-.85l1.17-1.15,3.43-3.4c.15-.15.21-.41.37-.56.64-.6,1.31-1.15,1.93-1.77s1.13-1.26,1.72-1.87c.11-.12.32-.15.59-.27,0-.26-.11-.64,0-.89a3.11,3.11,0,0,1,.83-.73c.06-.06.24-.07.24-.1-.07-1,1.15-1.3,1.33-2.18.83-.32,1-1.24,1.46-1.84.3-.35,1.07-.63.72-1.38,0,0,0-.12,0-.13.73-.49.91-1.37,1.43-2,.38-.46,1-.78.93-1.5,0,0,.31-.12.48-.18v-.76c.62-.86,1.17-1.65,1.72-2.43-.05-1.27,1-2,1.55-3,.25-.39,0-1,.59-1.2.14-.94,1-1.55,1.1-2.58a4.15,4.15,0,0,1,.88-1.9,2.52,2.52,0,0,0,.51-1.78c.21-.09.51-.15.52-.23a1.41,1.41,0,0,1,.52-1.09.63.63,0,0,0,.1-.52c-.18-.57.42-.5.56-.76s-.14-.76.25-1a.9.9,0,0,0,.36-.86c0-.5-.13-1.06.45-1.39a.19.19,0,0,0,.1-.1c.07-.46-.17-1.07.59-1.17-.13-1.17.85-2,1-3a10.77,10.77,0,0,0,.29-1.46c0-.86.72-1.45.82-2.25.12-1,1-1.76.76-2.86A.28.28,0,0,1,222,43c.78-.49.4-1.28.52-2,.26-.28.66-.51.56-1a1.78,1.78,0,0,1,.25-1,8.4,8.4,0,0,0,.32-1.6c.07-.3.2-.59.34-1-.36,0-.67-.05-1-.05-9.92,0-19.85,0-29.77,0-.4,0-1,.36-1.24-.27h61.87a21.78,21.78,0,0,1-.65,3.33c-.3.89-.52,1.81-.74,2.7-.47,1.87-1,3.72-1.52,5.57a30.85,30.85,0,0,1-1,3.06c-.37,1-.7,1.91-1,2.88q-.9,2.64-1.89,5.26c-.62,1.65-1.38,3.26-1.89,5a30.33,30.33,0,0,1-1.39,3c-.9,2-1.84,4-2.88,6-1.15,2.17-2.3,4.33-3.61,6.42-.92,1.48-1.81,3-2.73,4.47-.36.58-.76,1.13-1.17,1.68-.65.88-1.33,1.75-2,2.63-.43.58-.8,1.21-1.27,1.77-.71.87-1.48,1.69-2.22,2.54-.59.66-1.17,1.33-1.73,2s-1.44,1.09-1.73,2c-.82.4-1.06,1.46-2,1.73-.2.06-.34.33-.51.49-1.59,1.49-3.1,3.09-4.79,4.45-1.89,1.52-3.77,3-5.77,4.43-1.64,1.14-3.23,2.36-4.91,3.44-.1.07-.08.34-.11.52-.59,0-1.1.49-1.73.29-1,0-2-.4-3-.31s-2.2,0-3.3,0H170.14a3.4,3.4,0,0,0-2,.26.83.83,0,0,1-.79-.09C166.9,111.23,166.47,111.48,166.07,111.39Z"/><path class="cls-1" d="M217.87,118c-.43.39-.85.78-1.3,1.15a2.18,2.18,0,0,1-.69.4,12,12,0,0,0-3.08,1.92c-.49.36-1.12.53-1.65.86-.75.47-1.61.77-2.35,1.22-.91.56-2,.75-2.79,1.57-.73,0-1.13.77-1.86.7a14.34,14.34,0,0,1-2.85,1.43.69.69,0,0,0-.41.82h-8c.24-.33.26-.77.78-1s.65-.68,1-1a5.72,5.72,0,0,1,1.28-.71c.83-.32,1.4-1.19,2.42-1.1.14,0,.28-.23.44-.32l3-1.83,4.56-2.84,2.63-1.62.52-.23.14.47h3.57s.06-.06.09-.09v-.42c.59,0,1.1-.49,1.72-.29v.9c.68-.15,1.41.27,1.73-.61h.58Q217.17,118.15,217.87,118Z"/><path class="cls-3" d="M279.17,116.86c-.36.51-1,.38-1.47.71a11.32,11.32,0,0,1-1.53.73c-.43.23-.78.61-1.32.57a2.62,2.62,0,0,0,0-.28c-.09-.48.91-.16.62-.88-.07-.17.4-.56.6-.82.9-.11,1.78.15,2.6-.3C278.82,116.51,279.16,116.48,279.17,116.86Z"/><path class="cls-3" d="M281.47,115.71a2.74,2.74,0,0,1-1.73.86c-.17-.61.68-.6.68-1.1C280.77,115.54,281.24,115.1,281.47,115.71Z"/><path class="cls-7" d="M217.87,118q-.7.13-.57-.57c.18-.52.51-.3.83-.18s.4.12.61.18V118Z"/><path class="cls-10" d="M209,117.72l-2.63,1.62-4.56,2.84-3,1.83c-.16.09-.3.33-.44.32-1-.09-1.59.78-2.42,1.1a5.72,5.72,0,0,0-1.28.71c-.38.29-.63.81-1,1s-.54.64-.78,1l-.29.58H192v2.88a7.12,7.12,0,0,0-2.66.79c-1.37.5-2.75,1-4.08,1.53-.64.27-1.32.19-2,.45-1.1.44-2.25.76-3.38,1.13v.41h-2.15c-.46,0-.82.44-1.31.29-.07-.1-.14-.27-.23-.27a8.3,8.3,0,0,0-1,0H116.68l-.2.57-.48-.28v-.86a3.64,3.64,0,0,0,.28-.35c-.39-.39-.27-.87-.28-1.32,0-.67,0-1.33,0-2,0-.13-.18-.25-.28-.37-.34-.4-.68-.8-1-1.15h-1.37l-1.38,0v.53a.85.85,0,0,0-.22.09.68.68,0,0,0,0,.17.4.4,0,0,0,.17-.19c1,0,2-.32,2.88.39v1.27h-.29c-.9-.18-1.69.33-2.56.35,0,.65-.51.73-.89.95v1.58l-.48.57h-5c-.33-.52-.94-.62-1.44-.82a3.09,3.09,0,0,1-.83-.42c-.3-.24-.78-.31-.63-.88,0,0-.27-.16-.47-.27l-.37-2.21a11.91,11.91,0,0,0,.28-1.32,13.45,13.45,0,0,0,0-1.42c-.2-.11-.5-.17-.56-.33-.24-.58-.4-1.2-1.14-1.36a1.31,1.31,0,0,0-1.55-1.06c-.13,0-.3-.21-.42-.34a5.37,5.37,0,0,0-1.85-1.07c-.16-.08-.39,0-.51-.15a16,16,0,0,0-2.68-1.5c-.9-.58-1.79-1.16-2.73-1.68a29.14,29.14,0,0,1-4.1-2.72v-1.15h9.21l.09.24.2-.24H184c2.11,0,4.22,0,6.33,0a39.68,39.68,0,0,1,6.26.16,37.69,37.69,0,0,1,6-.16c2.11,0,4.22,0,6.33,0Z"/><path class="cls-3" d="M92.12,114.27c-.1.56-.54.27-.8.27-3.67,0-7.33,0-11,0v-.77c-.34-.12-.71-.24-1.06-.39a.8.8,0,0,1-.37-.27c-.33-.53-1.28-.57-1.16-1.45h7.32a11.1,11.1,0,0,0,1.29,0,9.93,9.93,0,0,0,1.17-.28h.87a2.09,2.09,0,0,0,1.19,1c.81.43,1.64.85,2.44,1.32C92.11,113.82,92.08,114.09,92.12,114.27Z"/><path class="cls-1" d="M275.82,13.91a7,7,0,0,1,2.39.06c.71.27,1.52-.17,2.11.44a8,8,0,0,1,3.34.63,5.63,5.63,0,0,1,2.47,1c.17.16.52.12.76.22,2.48,1,4.57,2.63,6.85,4,.64,1.05,2,1.46,2.42,2.71,1,.28,1.28,1.39,2,2a7.46,7.46,0,0,1,1.23,1.77c.35.57.63,1.21,1,1.73s.26,1.33.95,1.64c-.11.93.67,1.55.85,2.37a24.29,24.29,0,0,0,.34,2.6,13.85,13.85,0,0,1,.22,4.35,1.94,1.94,0,0,1-1.35,2.13,3,3,0,0,1-.63.19c-.38,0-.77,0-1.15,0-.62,0-1.37.06-1.66-.44-.38-.67-1.11-1.24-.95-2.2a9.14,9.14,0,0,0,0-1.57,4.33,4.33,0,0,0-.26-1.62c-.43-1-.4-2.2-.89-3.23a6.74,6.74,0,0,0-.3-.74,19.47,19.47,0,0,0-1.93-3.22c-.57-.67-1.19-1.32-1.71-2a13.47,13.47,0,0,0-1.78-1.53,20.47,20.47,0,0,0-4.05-2.77c-1.06-.62-2.27-1-3.33-1.66-1.18.21-2.17-.74-3.35-.58a13.91,13.91,0,0,0-5.06-.25,15.78,15.78,0,0,0-5.21.91,3,3,0,0,1-3.32-.93,3.15,3.15,0,0,1-.42-2.52,2.32,2.32,0,0,1,1.17-1.56,15.64,15.64,0,0,1,3.59-1.41c.82-.17,1.67-.17,2.46-.34A13.25,13.25,0,0,1,275.82,13.91Z"/><path class="cls-2" d="M213.84,114.56c-3.76,0-7.52,0-11.29,0-.26,0-.69.29-.79-.27a1.88,1.88,0,0,1,1-.89,11.93,11.93,0,0,0,1.9-1.28c.06,0,0-.28,0-.42.63.2,1.14-.28,1.73-.29a1,1,0,0,0,1.32.2,2.16,2.16,0,0,1,1.2-.19c1.9,0,3.79,0,5.69,0,.84,0,1.59.52,2.44.3,0,.14.05.38,0,.42a9.52,9.52,0,0,0-1.75,1.29c-.35.31-.71.76-1.31.64Z"/><path class="cls-8" d="M70.25,96.43a3.22,3.22,0,0,1,2.19-.58A.71.71,0,0,1,73,97a2,2,0,0,1-1,1.21A3.81,3.81,0,0,1,70.35,97C70.25,96.83,70.28,96.6,70.25,96.43Z"/><path class="cls-3" d="M241.47,99.31l-.75-1.17c-.85.21-1.54,1.09-2.49.85a7.46,7.46,0,0,1-1.65-.87c0-.41,0-.74,0-1.07a1.83,1.83,0,0,1,1.27-1.73c.75-.19,1.53-.27,2.41-.42a1.73,1.73,0,0,0,.05-.41c0-1.17-.05-1.24-1.18-1.22-.63,0-1.25.11-2,.18.07-.17.1-.44.23-.52.52-.3,1-.92,1.68-.25.08.07.28,0,.43,0,1.23.1,1.68.59,1.71,1.87,0,.62,0,1.24,0,1.87a3.49,3.49,0,0,0,.27,2C241.54,98.6,241.47,98.82,241.47,99.31Zm-4-2.74c0,.2,0,.39,0,.58,0,.83.18,1,1,1a2.17,2.17,0,0,0,1.88-.7V95.9h-2.17Z"/><path class="cls-3" d="M254.13,90.1l.29-.29Z"/><path class="cls-4" d="M179.89,135.85v-.41c1.13-.37,2.28-.69,3.38-1.13.64-.26,1.32-.18,2-.45,1.33-.57,2.71-1,4.08-1.53a7.12,7.12,0,0,1,2.66-.79v4.31Z"/><path class="cls-7" d="M224.49,117.15h.29l-.19.24Z"/><path class="cls-11" d="M181.32,65.92l-.79.39a7.52,7.52,0,0,1-1,2.79c-.33.57-.94,1.14-.8,2,.08.46-.45.22-.54.46s-.1.54-.22.77a6.94,6.94,0,0,0-.58.91c-.19.54-.77.89-.89,1.32-.2.65-.71,1-.92,1.63a11.18,11.18,0,0,1-.91,1.49c-1.15,2.08-2.92,3.71-4.08,5.77a1.94,1.94,0,0,1-.4.41,19.18,19.18,0,0,0-3,3.51c-.79.19-1.07,1-1.63,1.44s-1.14,1.13-1.73,1.69a18.59,18.59,0,0,1-3.42,2.83c-.37,1.09-1.68.91-2.3,1.68-.1.12-.46,0-.7,0l-.39-2-.64-.64c-1.21.22-2.68-.48-3.63.93.4.52.71.76,1.32.32a1.55,1.55,0,0,1,2.17.11v.78a1.92,1.92,0,0,1-1.56.48,1.88,1.88,0,0,0-1.46.6c-.26.22-.49.45-.7.66v2.19c-1.35.67-2.69,1.38-4.06,2a10.26,10.26,0,0,1-2.66.88,2.14,2.14,0,0,0-.74.28,14.06,14.06,0,0,1-2.66.88c-1.71.58-3.51.72-5.2,1.34a1.12,1.12,0,0,1-.26.08,33.13,33.13,0,0,0-3.47.31c-1.54.31-3.12,0-4.62.32a38.43,38.43,0,0,1-4.78.23c-.8.06-1.51-.41-2.33-.31a6.26,6.26,0,0,1-2.44,0c-1.45-.4-3-.11-4.4-.83a6.77,6.77,0,0,1-2.32-.3,2.46,2.46,0,0,1-1.4-.38,1.9,1.9,0,0,0-1.41-.48,8,8,0,0,1-1.45-.31,9.79,9.79,0,0,0-2.25-.83c-.83,0-1.36-.82-2.22-.9-.44,0-.8-.68-1.25-.77s-1.1-.12-1.47-.63c-.78.08-1.21-.74-1.81-.81-.82-.09-1-.92-1.73-1.07-.31-.07-.55-.4-1-.46A3.18,3.18,0,0,1,95.53,96,7,7,0,0,0,94,94.77a8,8,0,0,1-2.2-1.66c-1.31-1-2.42-2.33-3.8-3.3-.2-.79-1.06-1-1.45-1.64-.23-.4-.73-.63-1-1a22.93,22.93,0,0,0-1.78-2.12,23.84,23.84,0,0,1-2.84-3.59c-.44-.58-.87-1.17-1.32-1.76s-.67-1.36-1.11-2-.84-1.18-1.22-1.8c-.56-.91-1-1.88-1.65-2.76a5.35,5.35,0,0,1-.52-1.08,19.39,19.39,0,0,0-1.43-2.71,3.05,3.05,0,0,1-.8-2.1c-.48-.3-.26-.91-.63-1.34a4,4,0,0,1-1-2.14c-.06-.71-.76-1-.73-1.75,0-.55-.51-1.11-.75-1.69a7.61,7.61,0,0,1-.39-1.28,3,3,0,0,0-.61-1.48,2,2,0,0,1-.47-1.22,12.51,12.51,0,0,0-1-3.35c-.18-.55-.34-1.1-.5-1.66a18.68,18.68,0,0,0-1.33-4.49,1.14,1.14,0,0,1-.1-.53,30.22,30.22,0,0,0-1-4.9,13.75,13.75,0,0,1-.74-3.88,4.61,4.61,0,0,0-.26-1.22H190.56a7.44,7.44,0,0,0-.3,1,4.86,4.86,0,0,0,0,1,2,2,0,0,1-.27,1,10.44,10.44,0,0,0-.55,2.35c-.17.89-.46,1.74-.65,2.63a4.72,4.72,0,0,1-.81,2.39c-.05,2.06-1.31,3.83-1.46,5.86,0,0,0,.12,0,.15-.88,1.13-.92,2.59-1.47,3.85a6.42,6.42,0,0,0-.83,2.68l-.29.57a.69.69,0,0,0-.57.81,2.2,2.2,0,0,1-.45,1.51c-.57.88-.86,1.91-1.4,2.8A2.23,2.23,0,0,0,181.32,65.92ZM118.9,61.84l-.12-1.05c-.83,0-.45-.69-.46-1.06,0-1.68,0-3.35,0-5a3.38,3.38,0,0,0-.09-.54c-.51.11-.39-.54-.72-.61a9.66,9.66,0,0,0-1.75-.28c-2,0-4.11,0-6.16,0-1,0-1,.09-1.06,1,0,2.58,0,5.16,0,7.7a2.62,2.62,0,0,0,2.34,1c1.24-.06,2.48,0,3.72,0s2.4-.19,3.49-.28Z"/><path class="cls-12" d="M204.63,111.68c0,.14.06.37,0,.42a11.93,11.93,0,0,1-1.9,1.28,1.88,1.88,0,0,0-1,.89,6.09,6.09,0,0,1-.89.28,4.94,4.94,0,0,1-.86,0H94.59a11.26,11.26,0,0,1-1.3,0,9.93,9.93,0,0,1-1.17-.28c0-.18,0-.45-.11-.51-.8-.47-1.63-.89-2.44-1.32a2.09,2.09,0,0,1-1.19-1h77.69c.4.09.83-.16,1.23.18a.83.83,0,0,0,.79.09,3.4,3.4,0,0,1,2-.26h28.15c1.1,0,2.21.08,3.3,0S203.61,111.73,204.63,111.68Z"/><path class="cls-4" d="M192.55,128.66l.29-.58h6.61v.53c-1.5-.07-2.59,1.13-4,1.3v.48h-.29l-2.59.53Z"/><path class="cls-7" d="M209,117.15c1.27,0,2.54,0,3.81,0,.21,0,.51-.1.51.29v.42s-.06.09-.09.09h-3.57l-.14-.47-.52.23Z"/><path class="cls-7" d="M215,117.15a3.05,3.05,0,0,0,.83.26c.23,0,.46-.18.7-.25,0,0,.14.08.2.14s0,.09,0,.14c-.32.88-1.05.46-1.73.61Z"/><path class="cls-4" d="M116,135.28c-.38,0-.28-.3-.28-.5,0-1.18,0-2.36,0-3.53.1.12.27.24.28.37,0,.66,0,1.32,0,2,0,.45-.11.93.28,1.32A3.64,3.64,0,0,1,116,135.28Z"/><path class="cls-7" d="M86.65,118.3c-.37-.34-1.1-.23-1.17-1.09l1.17-.06Z"/><path class="cls-4" d="M114.85,132.4l-.19.24-.1-.24Z"/><path class="cls-1" d="M112,130.8l-.17.13a.68.68,0,0,1,0-.17.85.85,0,0,1,.22-.09Z"/><path class="cls-7" d="M95.86,117.15h.29l-.2.24Z"/><path class="cls-4" d="M112,134.07l1.07-.8c.49-.17,1.16.29,1.73-.36a14.52,14.52,0,0,1,.09,1.91,2.19,2.19,0,0,1-1.92.75c-.79,0-.93-.18-1-1Z"/><path class="cls-6" d="M237.44,96.57l.68-.67h2.17v1.56a2.17,2.17,0,0,1-1.88.7c-.79,0-.94-.18-1-1C237.43,97,237.44,96.77,237.44,96.57Z"/><path class="cls-13" d="M156.58,96.14v1l-1,1H154l-.35-1.54a3.85,3.85,0,0,1,2.72-.76C156.44,95.88,156.5,96,156.58,96.14Z"/><rect class="cls-11" x="105.64" y="50.81" width="15.12" height="15.12"/><path class="cls-11" d="M160.44,93.29s-2.68,2.73-11.95,7.16l-3-8.16L156,87.86Z"/><path class="cls-8" d="M162.24,92s-9,6.79-13.75,8.47,6.87,3.51,6.87,3.51l9.26-4.65Z"/><path class="cls-8" d="M179.9,68.41s6.42-10.81,10.66-32.06L214,40.19l-.34,20s-17.54,20.12-17.79,20.28-13.55-6.65-13.55-6.65Z"/><path class="cls-8" d="M74,100.32s-6.86-6.8-7.78-8.18,4.42-4.89,4.42-4.89,10,5.57,10.06,6.07,0,5.73,0,5.73Z"/><path class="cls-2" d="M236.15,15.86s8.7.17,8.59.34S243,27.94,242.8,27.81s-8.2-.53-8.26-.7S236.15,15.86,236.15,15.86Z"/><rect class="cls-10" x="108.52" y="128.08" width="9.88" height="7.77"/><rect class="cls-1" x="105.64" y="135.85" width="15.5" height="1.28"/><path class="cls-2" d="M190.13,132s9-3.49,13.37-5.74,2.26,9.62,2.26,9.62l-15.95,0Z"/><polygon class="cls-5" points="189.23 135.85 205.28 135.9 205.35 138.71 189.23 138.46 189.23 135.85"/><polygon class="cls-10" points="191.72 128.46 192.55 128.66 192.55 131.04 191.97 131.27 191.72 128.46"/><polygon class="cls-4" points="193.27 130.75 192.55 131.04 192.55 130.92 193.27 130.75"/><rect class="cls-4" x="236.99" y="92.15" width="5.45" height="8.06"/><rect class="cls-4" x="236.16" y="95.27" width="5.15" height="5.15"/></g></g></svg>